<svg xmlns="http://www.w3.org/2000/svg" viewBox="0 0 325 260"><title>a40a2cdbe2243b444112265608c5e6c</title><path d="M132.89,154.91c10.54,2.52,20.28,7.34,30.59,10.53a67.16,67.16,0,0,0,13.6,3c9.09.85,16.62-2.33,23.13-9.33-.56,4.71-1.34,8.74-1.47,12.79-.4,12.14,5,18,17.22,19.28,9,1,18,.81,26.94.91,2.86,0,5,.59,6.85,3a23.06,23.06,0,0,0,9.12,6.8c5.88,2.65,5.88,2.64,4.3,9.08-3.19-.08-5.09-2.13-6.73-4.5-5-7.16-12.05-10.16-20.54-10.25-5.83-.06-11.66.17-17.48-.05-12.12-.45-19-6.21-21.83-18-1.53-6.32-2.46-7-8.93-5.47-11.05,2.56-21.52.59-31.52-4.19-8.24-3.94-16.28-8.29-24.42-12.47C131.54,155,131.77,154.49,132.89,154.91Z" style="fill:#6f2902"/><path d="M106.68,92.07c4.15-4.26,9.75-5,15.14-6.22a2.23,2.23,0,0,1,2.74-.91c4.86-1.11,5.74-2.92,4-7.81-.44-1.2-2.44-2.76-.31-3.71,1.45-.65,2.5,1.22,3.35,2.45,1.3,1.88,1.21,4.1,1.43,6.25,5.83-2.4,7.05-6.86,3.52-12.26-.9-1.37-3.63-2.93-1.67-4.46,2.26-1.76,3.84,1,5,2.61,3.22,4.48,2.39,9.51-2.4,15.78,3.06.89,5.94-.18,8.74-1,7.87-2.21,10.44-8.59,6.83-16-.83-1.71-3.78-4.11-1-5.42s4,2.18,4.83,4.38A14.78,14.78,0,0,1,155.2,80c-.41.59-1.64.77-1.16,1.8s1.46.79,2.48.49c2.23-.65,4.59-.87,6.77-1.63,9.34-3.29,12-11.7,6.4-20-.75-1.1-1.66-2.09-2.4-3.19-.9-1.32-2.59-2.75-1-4.35,1.79-1.79,3.76-.74,5.34.64a16.88,16.88,0,0,1,5.92,15.66c-.85,6.5-4.63,11-10.71,13.3-5.48,2.11-11.32,2.63-17.12,3.24-4.31.45-8.62.8-12.93,1.19-2.79,2.61-6,.06-9,.82-7,.43-13.82,1.5-20,5.09C106.76,93.46,106.49,93,106.68,92.07Z" style="fill:#663403"/><path d="M208.64,169.1c3.13,10.56,11.83,16.33,25.41,16.88a67.06,67.06,0,0,0,17.77-2.13c2.34-.54,4-.46,5.85,1.22a22.42,22.42,0,0,0,12.5,5.77c2.78.35,3.7,1.4,3.57,4.06-.12,2.32.16,4.66.13,7,0,1,.7,2.59-.89,2.94a3.88,3.88,0,0,1-2.7-.9,9.81,9.81,0,0,1-2.69-2.88c-7.17-12.92-18.77-14.74-31.81-12.59a27.87,27.87,0,0,1-12.34-.55c-8-2.29-13.88-7-15.91-15.52C207.47,171.13,206.18,169.47,208.64,169.1Z" style="fill:#fecc04"/><path d="M137.33,107.34c1.2.24,1.12,1.23,1.35,2,3.22,10.24,10.42,15.9,20.7,18,7.72,1.61,15.55,1.57,23.38,1.67,8,.1,16,.13,23.78,2.38,6.65,1.93,12.08,5.55,15.67,11.59,1,1.74,2.13,4-.12,5.29s-3.2-1.19-4.06-2.61c-6.16-10.18-15.67-14.08-27-14.28-8.65-.15-17.32.5-26,.38-16.43-.23-25.08-7.24-28-22.2C137,108.79,136.71,108,137.33,107.34Z" style="fill:#702907"/><path d="M132.38,94.54c4,6.39,3.34,12.26-1.92,17.64-4.34,4.44-5.1,9.4-3.78,15.54,2.9,13.49-2.16,19.33-16,19.64-3.82.09-7.65.09-11.48.18-8,.2-15.46,1.92-21.86,9.4,1.61-6.89,5.63-9.44,10.54-10.91,6.31-1.89,12.88-1.15,19.33-1.67,4.31-.34,8.64-.4,12.66-2.35s6.19-5.12,5.3-9.65c-1.43-7.29-3.37-14.38-11.39-17.42.09-2.24,1.83-1.13,2.85-1.34,1.67-.35,3.49.53,5.09-.58,1.39-.48,2.81-.89,4.16-1.45,7.3-3,8.74-8.25,4.56-16.49C130.91,94.35,131.42,93.66,132.38,94.54Z" style="fill:#fecb08"/><path d="M104.68,153.06c-4.69,1.05-9.58,1.26-14,3.46-5.21,2.61-5.76,6.07-1.48,10.09,5.51,5.18,11.91,7.63,19.58,6.43a62.38,62.38,0,0,1,8.47-.47c1.46,0,3.23-.1,3.55,1.9.39,2.47-1.56,3.21-3.34,3.5-8.42,1.41-16.56,1-23.89-4.16-5.36-3.81-9.14-9.18-13.76-13.71-2.2-2.17.85-2.35,1.66-2.78,11-5.92,22.73-8.27,35.19-6.24,0,2.27-1.79,1.32-2.86,1.45C110.79,152.89,107.68,152,104.68,153.06Z" style="fill:#712b04"/><path d="M124.56,84.94l-2.74.91c-3-4-7.21-6.89-9.84-11.23-2.82-4.64-4.79-9.45-4.44-15a11.86,11.86,0,0,1,4.77-8.94c1.59-1.26,3.46-2.58,5.25-.51s-.22,3.28-1.41,4.6c-4.89,5.4-5.37,8.14-2.27,14.5,2.26-1.93,4.39-4.13,7.56-4.24,1.19,0,2.61,0,2.88,1.34.23,1.19-1.1,1.33-2,1.73-6.69,3-7.18,4.9-2.7,10.64C121.24,80.8,122.91,82.86,124.56,84.94Z" style="fill:#fecb05"/><path d="M132.38,94.54l-2,.56H126.1c.5-2.7.75-5.06,3.56-6,2-2.51,4.68-1.33,7.15-1.14,2.89.21,3.45,1.34,1.54,3.65A9.13,9.13,0,0,1,132.38,94.54Z" style="fill:#6c3a08"/><path d="M121.69,113c-2.23,2.37-5.66-.22-7.94,1.92a44.4,44.4,0,0,1-12.37-3.43,9.72,9.72,0,0,1-5.7-7C102.93,112,112,113.49,121.69,113Z" style="fill:#fed021"/><path d="M208.64,169.1c-1.17.81-.82,2.15-1.12,3.26-2.69-8.45-.18-15.88,4.62-22.86C210.8,156,208.08,162.27,208.64,169.1Z" style="fill:#fed128"/><path d="M104.68,153.06c2.14-1.72,4.67-.63,7-1,1.69-.23,3.6.63,5-1a50.62,50.62,0,0,1,16.22,3.82l-1.18,1.1C122.92,153,113.81,152.95,104.68,153.06Z" style="fill:#8e5430"/><path d="M106.68,92.07l1.1,1.05c-4.17,4.39,3.14,2.29,2.37,5.1C105,96,100,99.18,94.69,99q-.53-.29-.35-.58c.12-.19.23-.29.35-.29C98.79,96.33,103.41,95.52,106.68,92.07Z" style="fill:#744518"/><path d="M94.69,98.17q0,.43,0,.86c-3.28.69-6.7,1.24-4.59,7.35-4.32-5.49-4-6.77.7-7.83A30.22,30.22,0,0,1,94.69,98.17Z" style="fill:#7c4e20"/><path d="M136.81,87.91c-2.41.23-4.92-.16-7.15,1.14-.23-1.05-1.25-.66-1.86-1,2.86-1.88,6-.67,9-.82A2.15,2.15,0,0,0,136.81,87.91Z" style="fill:#b49374"/></svg>